<svg id="visual" viewBox="0 0 960 540" width="960" height="540" xmlns="http://www.w3.org/2000/svg" xmlns:xlink="http://www.w3.org/1999/xlink" version="1.1"><rect x="0" y="0" width="960" height="540" fill="#081915"></rect><defs><linearGradient id="grad1_0" x1="43.8%" y1="0%" x2="100%" y2="100%"><stop offset="14.444444444444446%" stop-color="#fa7c3c" stop-opacity="1"></stop><stop offset="85.55555555555554%" stop-color="#fa7c3c" stop-opacity="1"></stop></linearGradient></defs><defs><linearGradient id="grad1_1" x1="43.8%" y1="0%" x2="100%" y2="100%"><stop offset="14.444444444444446%" stop-color="#fa7c3c" stop-opacity="1"></stop><stop offset="85.55555555555554%" stop-color="#c3791c" stop-opacity="1"></stop></linearGradient></defs><defs><linearGradient id="grad1_2" x1="43.8%" y1="0%" x2="100%" y2="100%"><stop offset="14.444444444444446%" stop-color="#8f710d" stop-opacity="1"></stop><stop offset="85.55555555555554%" stop-color="#c3791c" stop-opacity="1"></stop></linearGradient></defs><defs><linearGradient id="grad1_3" x1="43.8%" y1="0%" x2="100%" y2="100%"><stop offset="14.444444444444446%" stop-color="#8f710d" stop-opacity="1"></stop><stop offset="85.55555555555554%" stop-color="#626413" stop-opacity="1"></stop></linearGradient></defs><defs><linearGradient id="grad1_4" x1="43.8%" y1="0%" x2="100%" y2="100%"><stop offset="14.444444444444446%" stop-color="#3d531b" stop-opacity="1"></stop><stop offset="85.55555555555554%" stop-color="#626413" stop-opacity="1"></stop></linearGradient></defs><defs><linearGradient id="grad1_5" x1="43.8%" y1="0%" x2="100%" y2="100%"><stop offset="14.444444444444446%" stop-color="#3d531b" stop-opacity="1"></stop><stop offset="85.55555555555554%" stop-color="#214020" stop-opacity="1"></stop></linearGradient></defs><defs><linearGradient id="grad1_6" x1="43.8%" y1="0%" x2="100%" y2="100%"><stop offset="14.444444444444446%" stop-color="#0f2c1e" stop-opacity="1"></stop><stop offset="85.55555555555554%" stop-color="#214020" stop-opacity="1"></stop></linearGradient></defs><defs><linearGradient id="grad1_7" x1="43.8%" y1="0%" x2="100%" y2="100%"><stop offset="14.444444444444446%" stop-color="#0f2c1e" stop-opacity="1"></stop><stop offset="85.55555555555554%" stop-color="#081915" stop-opacity="1"></stop></linearGradient></defs><defs><linearGradient id="grad2_0" x1="0%" y1="0%" x2="56.3%" y2="100%"><stop offset="14.444444444444446%" stop-color="#fa7c3c" stop-opacity="1"></stop><stop offset="85.55555555555554%" stop-color="#fa7c3c" stop-opacity="1"></stop></linearGradient></defs><defs><linearGradient id="grad2_1" x1="0%" y1="0%" x2="56.3%" y2="100%"><stop offset="14.444444444444446%" stop-color="#c3791c" stop-opacity="1"></stop><stop offset="85.55555555555554%" stop-color="#fa7c3c" stop-opacity="1"></stop></linearGradient></defs><defs><linearGradient id="grad2_2" x1="0%" y1="0%" x2="56.3%" y2="100%"><stop offset="14.444444444444446%" stop-color="#c3791c" stop-opacity="1"></stop><stop offset="85.55555555555554%" stop-color="#8f710d" stop-opacity="1"></stop></linearGradient></defs><defs><linearGradient id="grad2_3" x1="0%" y1="0%" x2="56.3%" y2="100%"><stop offset="14.444444444444446%" stop-color="#626413" stop-opacity="1"></stop><stop offset="85.55555555555554%" stop-color="#8f710d" stop-opacity="1"></stop></linearGradient></defs><defs><linearGradient id="grad2_4" x1="0%" y1="0%" x2="56.3%" y2="100%"><stop offset="14.444444444444446%" stop-color="#626413" stop-opacity="1"></stop><stop offset="85.55555555555554%" stop-color="#3d531b" stop-opacity="1"></stop></linearGradient></defs><defs><linearGradient id="grad2_5" x1="0%" y1="0%" x2="56.3%" y2="100%"><stop offset="14.444444444444446%" stop-color="#214020" stop-opacity="1"></stop><stop offset="85.55555555555554%" stop-color="#3d531b" stop-opacity="1"></stop></linearGradient></defs><defs><linearGradient id="grad2_6" x1="0%" y1="0%" x2="56.3%" y2="100%"><stop offset="14.444444444444446%" stop-color="#214020" stop-opacity="1"></stop><stop offset="85.55555555555554%" stop-color="#0f2c1e" stop-opacity="1"></stop></linearGradient></defs><defs><linearGradient id="grad2_7" x1="0%" y1="0%" x2="56.3%" y2="100%"><stop offset="14.444444444444446%" stop-color="#081915" stop-opacity="1"></stop><stop offset="85.55555555555554%" stop-color="#0f2c1e" stop-opacity="1"></stop></linearGradient></defs><g transform="translate(960, 0)"><path d="M0 405C-50.9 388.3 -101.7 371.6 -143.9 347.4C-186.1 323.2 -219.5 291.4 -260.2 260.2C-300.9 229 -348.8 198.3 -374.2 155C-399.5 111.7 -402.3 55.9 -405 0L0 0Z" fill="#0c221a"></path><path d="M0 354.4C-44.5 339.8 -89 325.1 -125.9 304C-162.8 282.8 -192.1 255 -227.7 227.7C-263.3 200.4 -305.2 173.5 -327.4 135.6C-349.6 97.7 -352 48.9 -354.4 0L0 0Z" fill="#173620"></path><path d="M0 303.8C-38.1 291.2 -76.3 278.7 -107.9 260.5C-139.5 242.4 -164.6 218.6 -195.2 195.2C-225.7 171.7 -261.6 148.7 -280.6 116.2C-299.6 83.8 -301.7 41.9 -303.7 0L0 0Z" fill="#2e4a1e"></path><path d="M0 253.1C-31.8 242.7 -63.6 232.2 -89.9 217.1C-116.3 202 -137.2 182.1 -162.6 162.6C-188.1 143.1 -218 123.9 -233.9 96.9C-249.7 69.8 -251.4 34.9 -253.1 0L0 0Z" fill="#4e5c17"></path><path d="M0 202.5C-25.4 194.1 -50.9 185.8 -71.9 173.7C-93 161.6 -109.8 145.7 -130.1 130.1C-150.5 114.5 -174.4 99.1 -187.1 77.5C-199.8 55.9 -201.1 27.9 -202.5 0L0 0Z" fill="#776b0e"></path><path d="M0 151.9C-19.1 145.6 -38.1 139.3 -54 130.3C-69.8 121.2 -82.3 109.3 -97.6 97.6C-112.8 85.9 -130.8 74.4 -140.3 58.1C-149.8 41.9 -150.8 20.9 -151.9 0L0 0Z" fill="#a87612"></path><path d="M0 101.3C-12.7 97.1 -25.4 92.9 -36 86.8C-46.5 80.8 -54.9 72.9 -65.1 65.1C-75.2 57.2 -87.2 49.6 -93.5 38.7C-99.9 27.9 -100.6 14 -101.2 0L0 0Z" fill="#de7b2a"></path><path d="M0 50.6C-6.4 48.5 -12.7 46.4 -18 43.4C-23.3 40.4 -27.4 36.4 -32.5 32.5C-37.6 28.6 -43.6 24.8 -46.8 19.4C-49.9 14 -50.3 7 -50.6 0L0 0Z" fill="#fa7c3c"></path></g><g transform="translate(0, 540)"><path d="M0 -405C44.8 -378.1 89.5 -351.3 138.5 -334.4C187.5 -317.6 240.8 -310.8 282.8 -282.8C324.9 -254.9 355.7 -205.7 374.2 -155C392.7 -104.3 398.8 -52.2 405 0L0 0Z" fill="#0c221a"></path><path d="M0 -354.4C39.2 -330.9 78.3 -307.4 121.2 -292.6C164.1 -277.9 210.7 -272 247.5 -247.5C284.3 -223 311.2 -180 327.4 -135.6C343.6 -91.3 349 -45.6 354.4 0L0 0Z" fill="#173620"></path><path d="M0 -303.7C33.6 -283.6 67.1 -263.5 103.9 -250.8C140.7 -238.2 180.6 -233.1 212.1 -212.1C243.7 -191.1 266.8 -154.2 280.6 -116.2C294.5 -78.2 299.1 -39.1 303.8 0L0 0Z" fill="#2e4a1e"></path><path d="M0 -253.1C28 -236.3 55.9 -219.5 86.6 -209C117.2 -198.5 150.5 -194.3 176.8 -176.8C203 -159.3 222.3 -128.5 233.9 -96.9C245.4 -65.2 249.3 -32.6 253.1 0L0 0Z" fill="#4e5c17"></path><path d="M0 -202.5C22.4 -189.1 44.8 -175.6 69.3 -167.2C93.8 -158.8 120.4 -155.4 141.4 -141.4C162.4 -127.4 177.8 -102.8 187.1 -77.5C196.3 -52.2 199.4 -26.1 202.5 0L0 0Z" fill="#776b0e"></path><path d="M0 -151.9C16.8 -141.8 33.6 -131.7 51.9 -125.4C70.3 -119.1 90.3 -116.6 106.1 -106.1C121.8 -95.6 133.4 -77.1 140.3 -58.1C147.2 -39.1 149.6 -19.6 151.9 0L0 0Z" fill="#a87612"></path><path d="M0 -101.2C11.2 -94.5 22.4 -87.8 34.6 -83.6C46.9 -79.4 60.2 -77.7 70.7 -70.7C81.2 -63.7 88.9 -51.4 93.5 -38.7C98.2 -26.1 99.7 -13 101.3 0L0 0Z" fill="#de7b2a"></path><path d="M0 -50.6C5.6 -47.3 11.2 -43.9 17.3 -41.8C23.4 -39.7 30.1 -38.9 35.4 -35.4C40.6 -31.9 44.5 -25.7 46.8 -19.4C49.1 -13 49.9 -6.5 50.6 0L0 0Z" fill="#fa7c3c"></path></g></svg>