<svg width="32" height="32" viewBox="0 0 32 32" fill="none" xmlns="http://www.w3.org/2000/svg">
  <rect width="32" height="32" rx="16" fill="#00C599"/>
  <path d="M16 8C13.7909 8 12 9.79086 12 12V20C12 22.2091 13.7909 24 16 24C18.2091 24 20 22.2091 20 20V12C20 9.79086 18.2091 8 16 8ZM10 12C10 8.68629 12.6863 6 16 6C19.3137 6 22 8.68629 22 12V20C22 23.3137 19.3137 26 16 26C12.6863 26 10 23.3137 10 20V12Z" fill="white"/>
  <path d="M10 14H8C8 10.134 11.134 7 15 7V9C12.2386 9 10 11.2386 10 14Z" fill="white"/>
  <path d="M24 18H22C22 20.7614 19.7614 23 17 23V25C20.866 25 24 21.866 24 18Z" fill="white"/>
</svg>