<svg xmlns="http://www.w3.org/2000/svg" version="1.1" xmlns:xlink="http://www.w3.org/1999/xlink" xmlns:svgjs="http://svgjs.dev/svgjs" width="1440" height="241" preserveAspectRatio="none" viewBox="0 0 1440 241"><g mask="url(&quot;#SvgjsMask1006&quot;)" fill="none"><path d="M18 241L259 0L520 0L279 241z" fill="url(&quot;#SvgjsLinearGradient1007&quot;)"></path><path d="M244.60000000000002 241L485.6 0L676.1 0L435.1 241z" fill="url(&quot;#SvgjsLinearGradient1007&quot;)"></path><path d="M517.2 241L758.2 0L854.2 0L613.2 241z" fill="url(&quot;#SvgjsLinearGradient1007&quot;)"></path><path d="M735.8000000000001 241L976.8000000000001 0L1218.3000000000002 0L977.3000000000001 241z" fill="url(&quot;#SvgjsLinearGradient1007&quot;)"></path><path d="M1428 241L1187 0L999.5 0L1240.5 241z" fill="url(&quot;#SvgjsLinearGradient1008&quot;)"></path><path d="M1174.4 241L933.4000000000001 0L717.4000000000001 0L958.4000000000001 241z" fill="url(&quot;#SvgjsLinearGradient1008&quot;)"></path><path d="M935.8 241L694.8 0L616.8 0L857.8 241z" fill="url(&quot;#SvgjsLinearGradient1008&quot;)"></path><path d="M719.1999999999999 241L478.19999999999993 0L430.19999999999993 0L671.1999999999999 241z" fill="url(&quot;#SvgjsLinearGradient1008&quot;)"></path><path d="M1204.0014239121863 241L1440 5.00142391218634L1440 241z" fill="url(&quot;#SvgjsLinearGradient1007&quot;)"></path><path d="M0 241L235.99857608781366 241L 0 5.00142391218634z" fill="url(&quot;#SvgjsLinearGradient1008&quot;)"></path></g><defs><mask id="SvgjsMask1006"><rect width="1440" height="241" fill="#ffffff"></rect></mask><linearGradient x1="0%" y1="100%" x2="100%" y2="0%" id="SvgjsLinearGradient1007"><stop stop-color="rgba(185, 136, 15, 0.2)" offset="0"></stop><stop stop-opacity="0" stop-color="rgba(185, 136, 15, 0.2)" offset="0.66"></stop></linearGradient><linearGradient x1="100%" y1="100%" x2="0%" y2="0%" id="SvgjsLinearGradient1008"><stop stop-color="rgba(185, 136, 15, 0.2)" offset="0"></stop><stop stop-opacity="0" stop-color="rgba(185, 136, 15, 0.2)" offset="0.66"></stop></linearGradient></defs></svg>