<svg id="visual" viewBox="0 0 960 540" width="960" height="540" xmlns="http://www.w3.org/2000/svg" xmlns:xlink="http://www.w3.org/1999/xlink" version="1.1"><path d="M0 33L40 33C80 33 160 33 240 30.3C320 27.7 400 22.3 480 18.8C560 15.3 640 13.7 720 17.3C800 21 880 30 920 34.5L960 39L960 0L920 0C880 0 800 0 720 0C640 0 560 0 480 0C400 0 320 0 240 0C160 0 80 0 40 0L0 0Z" fill="#f3d3b7"></path><path d="M0 66L40 65C80 64 160 62 240 61C320 60 400 60 480 61.8C560 63.7 640 67.3 720 66.5C800 65.7 880 60.3 920 57.7L960 55L960 37L920 32.5C880 28 800 19 720 15.3C640 11.7 560 13.3 480 16.8C400 20.3 320 25.7 240 28.3C160 31 80 31 40 31L0 31Z" fill="#f5dac3"></path><path d="M0 120L40 113.7C80 107.3 160 94.7 240 87.5C320 80.3 400 78.7 480 87.7C560 96.7 640 116.3 720 125.3C800 134.3 880 132.7 920 131.8L960 131L960 53L920 55.7C880 58.3 800 63.7 720 64.5C640 65.3 560 61.7 480 59.8C400 58 320 58 240 59C160 60 80 62 40 63L0 64Z" fill="#f7e2d0"></path><path d="M0 168L40 164.5C80 161 160 154 240 147.8C320 141.7 400 136.3 480 143.5C560 150.7 640 170.3 720 181C800 191.7 880 193.3 920 194.2L960 195L960 129L920 129.8C880 130.7 800 132.3 720 123.3C640 114.3 560 94.7 480 85.7C400 76.7 320 78.3 240 85.5C160 92.7 80 105.3 40 111.7L0 118Z" fill="#f8e6d7"></path><path d="M0 298L40 294.3C80 290.7 160 283.3 240 274.3C320 265.3 400 254.7 480 262.8C560 271 640 298 720 307C800 316 880 307 920 302.5L960 298L960 193L920 192.2C880 191.3 800 189.7 720 179C640 168.3 560 148.7 480 141.5C400 134.3 320 139.7 240 145.8C160 152 80 159 40 162.5L0 166Z" fill="#faeade"></path><path d="M0 325L40 319.7C80 314.3 160 303.7 240 292C320 280.3 400 267.7 480 277.5C560 287.3 640 319.7 720 327.7C800 335.7 880 319.3 920 311.2L960 303L960 296L920 300.5C880 305 800 314 720 305C640 296 560 269 480 260.8C400 252.7 320 263.3 240 272.3C160 281.3 80 288.7 40 292.3L0 296Z" fill="#faece1"></path><path d="M0 347L40 341.5C80 336 160 325 240 316.8C320 308.7 400 303.3 480 313.3C560 323.3 640 348.7 720 354C800 359.3 880 344.7 920 337.3L960 330L960 301L920 309.2C880 317.3 800 333.7 720 325.7C640 317.7 560 285.3 480 275.5C400 265.7 320 278.3 240 290C160 301.7 80 312.3 40 317.7L0 323Z" fill="#faece1"></path><path d="M0 384L40 379.5C80 375 160 366 240 358C320 350 400 343 480 353C560 363 640 390 720 393.5C800 397 880 377 920 367L960 357L960 328L920 335.3C880 342.7 800 357.3 720 352C640 346.7 560 321.3 480 311.3C400 301.3 320 306.7 240 314.8C160 323 80 334 40 339.5L0 345Z" fill="#faeade"></path><path d="M0 417L40 412.5C80 408 160 399 240 391.8C320 384.7 400 379.3 480 385.7C560 392 640 410 720 410C800 410 880 392 920 383L960 374L960 355L920 365C880 375 800 395 720 391.5C640 388 560 361 480 351C400 341 320 348 240 356C160 364 80 373 40 377.5L0 382Z" fill="#f8e6d7"></path><path d="M0 455L40 451.3C80 447.7 160 440.3 240 441.2C320 442 400 451 480 463.7C560 476.3 640 492.7 720 490C800 487.3 880 465.7 920 454.8L960 444L960 372L920 381C880 390 800 408 720 408C640 408 560 390 480 383.7C400 377.3 320 382.7 240 389.8C160 397 80 406 40 410.5L0 415Z" fill="#f7e2d0"></path><path d="M0 519L40 520C80 521 160 523 240 524C320 525 400 525 480 525.8C560 526.7 640 528.3 720 525.7C800 523 880 516 920 512.5L960 509L960 442L920 452.8C880 463.7 800 485.3 720 488C640 490.7 560 474.3 480 461.7C400 449 320 440 240 439.2C160 438.3 80 445.7 40 449.3L0 453Z" fill="#f5dac3"></path><path d="M0 541L40 541C80 541 160 541 240 541C320 541 400 541 480 541C560 541 640 541 720 541C800 541 880 541 920 541L960 541L960 507L920 510.5C880 514 800 521 720 523.7C640 526.3 560 524.7 480 523.8C400 523 320 523 240 522C160 521 80 519 40 518L0 517Z" fill="#f3d3b7"></path></svg>